@startuml
class Health {
    + MaxHealth : float <<get>>
    + CurrentHealth : float <<get>>
    + Initialize(maxHealth:float) : void
    + ResetHealth(maxHealth:float) : void
}
class "Observable`1"<T> {
}
MonoBehaviour <|-- Health
Health --> "OnCurrentHealthChangedAsObservable<Unit>" "Observable`1"
Health --> "OnCurrentHealthChangedWithoutAnimationAsObservable<Unit>" "Observable`1"
Health --> "InitializedAsync" UniTask
@enduml
